<?xml version="1.0" encoding="utf-8"?>
<svg version="1.1" xmlns="http://www.w3.org/2000/svg" xmlns:xlink="http://www.w3.org/1999/xlink" x="0px" y="0px"
	 viewBox="0 0 200 200" xml:space="preserve">
	<path style="fill:#1d2327;" d="M43.4,124.9h52.8V75.1H43.4c-2.9,0-5.3,2.4-5.3,5.3v39.1C38,122.5,40.4,124.9,43.4,124.9z"/>
	<path style="fill:#1d2327;" d="M66.1,138.9H43.8c-3.2,0-5.8,2.6-5.8,5.8c0,3.2,2.6,5.8,5.8,5.8h22.3c3.2,0,5.8-2.6,5.8-5.8
		C71.9,141.5,69.3,138.9,66.1,138.9z"/>
	<path style="fill:#1d2327;" d="M156.6,75.1h-34.2v-6.4c0-4.2,3.4-7.6,7.6-7.6h4.4c3.2,0,5.8-2.6,5.8-5.8c0-3.2-2.6-5.8-5.8-5.8H130
		c-5.2,0-9.9,2.1-13.4,5.5c-3.5-3.4-8.2-5.5-13.4-5.5h-4.4c-3.2,0-5.8,2.6-5.8,5.8c0,3.2,2.6,5.8,5.8,5.8h4.4c4.2,0,7.6,3.4,7.6,7.6
		v70.1h-12c-3.2,0-5.8,2.6-5.8,5.8c0,3.2,2.6,5.8,5.8,5.8h17.8h17.8c3.2,0,5.8-2.6,5.8-5.8c0-3.2-2.6-5.8-5.8-5.8h-12v-14h34.2
		c2.9,0,5.3-2.4,5.3-5.3V80.4C162,77.5,159.6,75.1,156.6,75.1z M151.3,114.2h-28.9V85.8h28.9V114.2z"/>
</svg>
