<?xml version="1.0" encoding="utf-8"?>
<!-- Generator: Adobe Illustrator 25.4.1, SVG Export Plug-In . SVG Version: 6.00 Build 0)  -->
<svg version="1.1" id="Calque_1" xmlns="http://www.w3.org/2000/svg" xmlns:xlink="http://www.w3.org/1999/xlink" x="0px" y="0px"
	 viewBox="0 0 82.1 84.2" style="enable-background:new 0 0 82.1 84.2;" xml:space="preserve">
<path style="fill:none;stroke:#8D949B;stroke-width:3;stroke-linecap:round;stroke-linejoin:round;stroke-miterlimit:10;" d="
	M44.8,28.5c2,0.4,3.7,1.4,5,2.7c0.8,0.8,1.4,1.7,1.9,2.7"/>
<path style="fill:none;stroke:#8D949B;stroke-width:3;stroke-linecap:round;stroke-linejoin:round;stroke-miterlimit:10;" d="
	M61.5,41.1c0-12.5-11.1-22.3-23.9-20.3c-8.8,1.4-15.8,8.5-17,17.4c-1.2,8.8,3.2,16.7,10.1,20.7c0,0,0,0,0,0.1v13.7
	c0,5.2,4.2,9.4,9.4,9.4h1.7c5.2,0,9.4-4.2,9.4-9.4V59c0,0,0-0.1,0-0.1C57.3,55.4,61.5,48.7,61.5,41.1z"/>
<line style="fill:none;stroke:#8D949B;stroke-width:3;stroke-linecap:round;stroke-linejoin:round;stroke-miterlimit:10;" x1="30.7" y1="66.2" x2="51.1" y2="66.2"/>
<line style="fill:none;stroke:#8D949B;stroke-width:3;stroke-linecap:round;stroke-linejoin:round;stroke-miterlimit:10;" x1="69.5" y1="40.6" x2="74.1" y2="40.6"/>
<line style="fill:none;stroke:#8D949B;stroke-width:3;stroke-linecap:round;stroke-linejoin:round;stroke-miterlimit:10;" x1="7.7" y1="40.6" x2="12.3" y2="40.6"/>
<line style="fill:none;stroke:#8D949B;stroke-width:3;stroke-linecap:round;stroke-linejoin:round;stroke-miterlimit:10;" x1="40.9" y1="12" x2="40.9" y2="7.4"/>
<line style="fill:none;stroke:#8D949B;stroke-width:3;stroke-linecap:round;stroke-linejoin:round;stroke-miterlimit:10;" x1="61.1" y1="20.3" x2="64.4" y2="17.1"/>
<line style="fill:none;stroke:#8D949B;stroke-width:3;stroke-linecap:round;stroke-linejoin:round;stroke-miterlimit:10;" x1="17.5" y1="64" x2="20.7" y2="60.8"/>
<line style="fill:none;stroke:#8D949B;stroke-width:3;stroke-linecap:round;stroke-linejoin:round;stroke-miterlimit:10;" x1="20.7" y1="20.3" x2="17.5" y2="17.1"/>
<line style="fill:none;stroke:#8D949B;stroke-width:3;stroke-linecap:round;stroke-linejoin:round;stroke-miterlimit:10;" x1="64.4" y1="64" x2="61.1" y2="60.8"/>
<line style="fill:none;stroke:#8D949B;stroke-width:3;stroke-linecap:round;stroke-linejoin:round;stroke-miterlimit:10;" x1="37" y1="71.6" x2="44.8" y2="71.6"/>
<line style="fill:none;stroke:#8D949B;stroke-width:3;stroke-linecap:round;stroke-linejoin:round;stroke-miterlimit:10;" x1="38" y1="76.5" x2="43.8" y2="76.5"/>
<path style="fill:none;stroke:#8D949B;stroke-width:3;stroke-linecap:round;stroke-linejoin:round;stroke-miterlimit:10;" d="
	M44.3,66.2c-1.5-15.9,3.3-21.9,4.2-24.1c0.1-0.2-0.1-0.3-0.2-0.2c-1.1,0.7-4.2,2-7.2-0.2c-0.1,0-0.1,0-0.2,0
	c-3.1,2.2-6.1,0.9-7.2,0.2c-0.1-0.1-0.3,0.1-0.2,0.2c0.9,2.2,5.6,8.3,4.2,24.1"/>
<line style="fill:none;stroke:#8D949B;stroke-width:3;stroke-linecap:round;stroke-linejoin:round;stroke-miterlimit:10;" x1="26.3" y1="6.2" x2="26" y2="6"/>
<line style="fill:none;stroke:#8D949B;stroke-width:3;stroke-linecap:round;stroke-linejoin:round;stroke-miterlimit:10;" x1="30" y1="9.9" x2="29.7" y2="9.6"/>
<line style="fill:none;stroke:#8D949B;stroke-width:3;stroke-linecap:round;stroke-linejoin:round;stroke-miterlimit:10;" x1="26.3" y1="9.6" x2="26" y2="9.9"/>
<line style="fill:none;stroke:#8D949B;stroke-width:3;stroke-linecap:round;stroke-linejoin:round;stroke-miterlimit:10;" x1="30" y1="6" x2="29.7" y2="6.2"/>
<line style="fill:none;stroke:#8D949B;stroke-width:3;stroke-linecap:round;stroke-linejoin:round;stroke-miterlimit:10;" x1="52.9" y1="8.2" x2="53.8" y2="7.3"/>
<line style="fill:none;stroke:#8D949B;stroke-width:3;stroke-linecap:round;stroke-linejoin:round;stroke-miterlimit:10;" x1="58" y1="3.1" x2="59" y2="2.1"/>
<line style="fill:none;stroke:#8D949B;stroke-width:3;stroke-linecap:round;stroke-linejoin:round;stroke-miterlimit:10;" x1="59" y1="8.2" x2="58" y2="7.3"/>
<line style="fill:none;stroke:#8D949B;stroke-width:3;stroke-linecap:round;stroke-linejoin:round;stroke-miterlimit:10;" x1="53.8" y1="3.1" x2="52.9" y2="2.1"/>
<line style="fill:none;stroke:#8D949B;stroke-width:3;stroke-linecap:round;stroke-linejoin:round;stroke-miterlimit:10;" x1="4.8" y1="52.1" x2="4.6" y2="51.8"/>
<line style="fill:none;stroke:#8D949B;stroke-width:3;stroke-linecap:round;stroke-linejoin:round;stroke-miterlimit:10;" x1="8.5" y1="55.8" x2="8.2" y2="55.5"/>
<line style="fill:none;stroke:#8D949B;stroke-width:3;stroke-linecap:round;stroke-linejoin:round;stroke-miterlimit:10;" x1="4.8" y1="55.5" x2="4.6" y2="55.8"/>
<line style="fill:none;stroke:#8D949B;stroke-width:3;stroke-linecap:round;stroke-linejoin:round;stroke-miterlimit:10;" x1="8.5" y1="51.8" x2="8.2" y2="52.1"/>
<line style="fill:none;stroke:#8D949B;stroke-width:3;stroke-linecap:round;stroke-linejoin:round;stroke-miterlimit:10;" x1="71.4" y1="56" x2="72.4" y2="55.1"/>
<line style="fill:none;stroke:#8D949B;stroke-width:3;stroke-linecap:round;stroke-linejoin:round;stroke-miterlimit:10;" x1="76.6" y1="50.9" x2="77.5" y2="49.9"/>
<line style="fill:none;stroke:#8D949B;stroke-width:3;stroke-linecap:round;stroke-linejoin:round;stroke-miterlimit:10;" x1="77.5" y1="56" x2="76.6" y2="55.1"/>
<line style="fill:none;stroke:#8D949B;stroke-width:3;stroke-linecap:round;stroke-linejoin:round;stroke-miterlimit:10;" x1="72.4" y1="50.9" x2="71.4" y2="49.9"/>
<line style="fill:none;stroke:#8D949B;stroke-width:3;stroke-linecap:round;stroke-linejoin:round;stroke-miterlimit:10;" x1="13.8" y1="78.5" x2="14.8" y2="77.5"/>
<line style="fill:none;stroke:#8D949B;stroke-width:3;stroke-linecap:round;stroke-linejoin:round;stroke-miterlimit:10;" x1="19" y1="73.3" x2="20" y2="72.3"/>
<line style="fill:none;stroke:#8D949B;stroke-width:3;stroke-linecap:round;stroke-linejoin:round;stroke-miterlimit:10;" x1="20" y1="78.5" x2="19" y2="77.5"/>
<line style="fill:none;stroke:#8D949B;stroke-width:3;stroke-linecap:round;stroke-linejoin:round;stroke-miterlimit:10;" x1="14.8" y1="73.3" x2="13.8" y2="72.3"/>
<line style="fill:none;stroke:#8D949B;stroke-width:3;stroke-linecap:round;stroke-linejoin:round;stroke-miterlimit:10;" x1="6" y1="30.7" x2="6.8" y2="29.9"/>
<line style="fill:none;stroke:#8D949B;stroke-width:3;stroke-linecap:round;stroke-linejoin:round;stroke-miterlimit:10;" x1="10.4" y1="26.3" x2="11.2" y2="25.5"/>
<line style="fill:none;stroke:#8D949B;stroke-width:3;stroke-linecap:round;stroke-linejoin:round;stroke-miterlimit:10;" x1="11.2" y1="30.7" x2="10.4" y2="29.9"/>
<line style="fill:none;stroke:#8D949B;stroke-width:3;stroke-linecap:round;stroke-linejoin:round;stroke-miterlimit:10;" x1="6.8" y1="26.3" x2="6" y2="25.5"/>
<line style="fill:none;stroke:#8D949B;stroke-width:3;stroke-linecap:round;stroke-linejoin:round;stroke-miterlimit:10;" x1="71.2" y1="25.7" x2="70.9" y2="25.5"/>
<line style="fill:none;stroke:#8D949B;stroke-width:3;stroke-linecap:round;stroke-linejoin:round;stroke-miterlimit:10;" x1="74.8" y1="29.4" x2="74.6" y2="29.2"/>
<line style="fill:none;stroke:#8D949B;stroke-width:3;stroke-linecap:round;stroke-linejoin:round;stroke-miterlimit:10;" x1="71.2" y1="29.2" x2="70.9" y2="29.4"/>
<line style="fill:none;stroke:#8D949B;stroke-width:3;stroke-linecap:round;stroke-linejoin:round;stroke-miterlimit:10;" x1="74.8" y1="25.5" x2="74.6" y2="25.7"/>
<line style="fill:none;stroke:#8D949B;stroke-width:3;stroke-linecap:round;stroke-linejoin:round;stroke-miterlimit:10;" x1="58.5" y1="70.6" x2="58.2" y2="70.4"/>
<line style="fill:none;stroke:#8D949B;stroke-width:3;stroke-linecap:round;stroke-linejoin:round;stroke-miterlimit:10;" x1="62.2" y1="74.3" x2="61.9" y2="74"/>
<line style="fill:none;stroke:#8D949B;stroke-width:3;stroke-linecap:round;stroke-linejoin:round;stroke-miterlimit:10;" x1="58.5" y1="74" x2="58.2" y2="74.3"/>
<line style="fill:none;stroke:#8D949B;stroke-width:3;stroke-linecap:round;stroke-linejoin:round;stroke-miterlimit:10;" x1="62.2" y1="70.4" x2="61.9" y2="70.6"/>
</svg>
