<?xml version="1.0" encoding="utf-8"?>
<svg version="1.1" xmlns="http://www.w3.org/2000/svg" xmlns:xlink="http://www.w3.org/1999/xlink" x="0px" y="0px"
	 viewBox="0 0 82.1 84.2" xml:space="preserve">
<line style="fill:none;stroke:#8D949B;stroke-width:3;stroke-linecap:round;stroke-linejoin:round;stroke-miterlimit:10;" x1="23.5" y1="71.1" x2="31" y2="63.5"/>
<line style="fill:none;stroke:#8D949B;stroke-width:3;stroke-linecap:round;stroke-linejoin:round;stroke-miterlimit:10;" x1="25.5" y1="81.9" x2="39.4" y2="68"/>
<line style="fill:none;stroke:#8D949B;stroke-width:3;stroke-linecap:round;stroke-linejoin:round;stroke-miterlimit:10;" x1="6.2" y1="75.5" x2="21.2" y2="60.6"/>
<line style="fill:none;stroke:#8D949B;stroke-width:3;stroke-linecap:round;stroke-linejoin:round;stroke-miterlimit:10;" x1="12.8" y1="56.1" x2="17.9" y2="50.9"/>
<path style="fill:none;stroke:#8D949B;stroke-width:3;stroke-linecap:round;stroke-linejoin:round;stroke-miterlimit:10;" d="
	M34,28.3c-5.6-0.2-12.9,0.9-18.1,6.3l7.8,7.8"/>
<path style="fill:none;stroke:#8D949B;stroke-width:3;stroke-linecap:round;stroke-linejoin:round;stroke-miterlimit:10;" d="
	M53.5,47.9c0.2,5.6-0.9,12.9-6.3,18.1l-7.8-7.8"/>
<path style="fill:none;stroke:#8D949B;stroke-width:3;stroke-linecap:round;stroke-linejoin:round;stroke-miterlimit:10;" d="
	M49.6,50.3C79.9,32.4,79.9,1.9,79.9,1.9s-30.5,0-48.4,30.3"/>
<line style="fill:none;stroke:#8D949B;stroke-width:3;stroke-linecap:round;stroke-linejoin:round;stroke-miterlimit:10;" x1="61.6" y1="6.2" x2="75.6" y2="20.3"/>
<path style="fill:none;stroke:#8D949B;stroke-width:3;stroke-linecap:round;stroke-linejoin:round;stroke-miterlimit:10;" d="
	M63.5,22.5c1.1-1.1,1.1-3,0-4.1c-1.1-1.1-3-1.1-4.1,0c-1.1,1.1-1.1,3,0,4.1C60.5,23.7,62.3,23.7,63.5,22.5z"/>
<circle style="fill:none;stroke:#8D949B;stroke-width:3;stroke-linecap:round;stroke-linejoin:round;stroke-miterlimit:10;" cx="54.2" cy="27.7" r="2.9"/>
<path style="fill:none;stroke:#8D949B;stroke-width:3;stroke-linecap:round;stroke-linejoin:round;stroke-miterlimit:10;" d="
	M49,36.9c1.1-1.1,1.1-3,0-4.1c-1.1-1.1-3-1.1-4.1,0c-1.1,1.1-1.1,3,0,4.1C46.1,38.1,47.9,38.1,49,36.9z"/>
<path style="fill:none;stroke:#8D949B;stroke-width:3;stroke-linecap:round;stroke-linejoin:round;stroke-miterlimit:10;" d="
	M33.8,39.2c-4.6,0.5-9.6,2.1-13.5,6.1l16.2,16.2c4-3.9,5.6-8.9,6.1-13.5"/>
<line style="fill:none;stroke:#8D949B;stroke-width:3;stroke-linecap:round;stroke-linejoin:round;stroke-miterlimit:10;" x1="1.6" y1="54" x2="13.6" y2="42"/>
<line style="fill:none;stroke:#8D949B;stroke-width:3;stroke-linecap:round;stroke-linejoin:round;stroke-miterlimit:10;" x1="67.6" y1="66.3" x2="68.5" y2="65.4"/>
<line style="fill:none;stroke:#8D949B;stroke-width:3;stroke-linecap:round;stroke-linejoin:round;stroke-miterlimit:10;" x1="72.7" y1="61.1" x2="73.7" y2="60.2"/>
<line style="fill:none;stroke:#8D949B;stroke-width:3;stroke-linecap:round;stroke-linejoin:round;stroke-miterlimit:10;" x1="73.7" y1="66.3" x2="72.7" y2="65.4"/>
<line style="fill:none;stroke:#8D949B;stroke-width:3;stroke-linecap:round;stroke-linejoin:round;stroke-miterlimit:10;" x1="68.5" y1="61.1" x2="67.6" y2="60.2"/>
<line style="fill:none;stroke:#8D949B;stroke-width:3;stroke-linecap:round;stroke-linejoin:round;stroke-miterlimit:10;" x1="75.5" y1="43.6" x2="75.3" y2="43.4"/>
<line style="fill:none;stroke:#8D949B;stroke-width:3;stroke-linecap:round;stroke-linejoin:round;stroke-miterlimit:10;" x1="79.3" y1="47.4" x2="79" y2="47.1"/>
<line style="fill:none;stroke:#8D949B;stroke-width:3;stroke-linecap:round;stroke-linejoin:round;stroke-miterlimit:10;" x1="75.5" y1="47.1" x2="75.3" y2="47.4"/>
<line style="fill:none;stroke:#8D949B;stroke-width:3;stroke-linecap:round;stroke-linejoin:round;stroke-miterlimit:10;" x1="79.3" y1="43.4" x2="79" y2="43.6"/>
<line style="fill:none;stroke:#8D949B;stroke-width:3;stroke-linecap:round;stroke-linejoin:round;stroke-miterlimit:10;" x1="20.6" y1="13.3" x2="21.5" y2="12.4"/>
<line style="fill:none;stroke:#8D949B;stroke-width:3;stroke-linecap:round;stroke-linejoin:round;stroke-miterlimit:10;" x1="25.7" y1="8.1" x2="26.7" y2="7.2"/>
<line style="fill:none;stroke:#8D949B;stroke-width:3;stroke-linecap:round;stroke-linejoin:round;stroke-miterlimit:10;" x1="26.7" y1="13.3" x2="25.7" y2="12.4"/>
<line style="fill:none;stroke:#8D949B;stroke-width:3;stroke-linecap:round;stroke-linejoin:round;stroke-miterlimit:10;" x1="21.5" y1="8.1" x2="20.6" y2="7.2"/>
<line style="fill:none;stroke:#8D949B;stroke-width:3;stroke-linecap:round;stroke-linejoin:round;stroke-miterlimit:10;" x1="3.5" y1="22.6" x2="3.3" y2="22.4"/>
<line style="fill:none;stroke:#8D949B;stroke-width:3;stroke-linecap:round;stroke-linejoin:round;stroke-miterlimit:10;" x1="7.3" y1="26.4" x2="7" y2="26.1"/>
<line style="fill:none;stroke:#8D949B;stroke-width:3;stroke-linecap:round;stroke-linejoin:round;stroke-miterlimit:10;" x1="3.5" y1="26.1" x2="3.3" y2="26.4"/>
<line style="fill:none;stroke:#8D949B;stroke-width:3;stroke-linecap:round;stroke-linejoin:round;stroke-miterlimit:10;" x1="7.3" y1="22.4" x2="7" y2="22.6"/>
<line style="fill:none;stroke:#8D949B;stroke-width:3;stroke-linecap:round;stroke-linejoin:round;stroke-miterlimit:10;" x1="52.5" y1="74.6" x2="52.3" y2="74.4"/>
<line style="fill:none;stroke:#8D949B;stroke-width:3;stroke-linecap:round;stroke-linejoin:round;stroke-miterlimit:10;" x1="56.3" y1="78.4" x2="56" y2="78.1"/>
<line style="fill:none;stroke:#8D949B;stroke-width:3;stroke-linecap:round;stroke-linejoin:round;stroke-miterlimit:10;" x1="52.5" y1="78.1" x2="52.3" y2="78.4"/>
<line style="fill:none;stroke:#8D949B;stroke-width:3;stroke-linecap:round;stroke-linejoin:round;stroke-miterlimit:10;" x1="56.3" y1="74.4" x2="56" y2="74.6"/>
</svg>
